# xmcd CD database file
#
# Track frame offsets:
#	150
#	20037
#	31393
#	45990
#	65533
#	90263
#	114951
#	135264
#	158966
#	178054
#	201550
#	227039
#	245171
#	260379
#
# Disc length: 3706 seconds
#
# Revision: 1
# Processed by: cddbd v1.4PL0 Copyright (c) Steve Scherf et al.
# Submitted via: jetAudio 5
#
DISCID=b90e780e
DTITLE=Marco Borsato - teh best of
DYEAR=1900
DGENRE=
TTITLE0=De wens
TTITLE1=Onbewoonbaar verklaard
TTITLE2=Zeven weken
TTITLE3=Zonder jouw
TTITLE4=Domenica
TTITLE5=het Water
TTITLE6=de Bestemming
TTITLE7=Vreemde Handen
TTITLE8=Margerita
TTITLE9=de Waarheid
TTITLE10=Alles Kwijt
TTITLE11=Vrij zijn
TTITLE12=Ik heb genoeg aan jou
TTITLE13=Wereld zonder jou
EXTD=
EXTT0=
EXTT1=
EXTT2=
EXTT3=
EXTT4=
EXTT5=
EXTT6=
EXTT7=
EXTT8=
EXTT9=
EXTT10=
EXTT11=
EXTT12=
EXTT13=
PLAYORDER=
